<svg width="35" height="35" viewBox="0 0 35 35" fill="none" xmlns="http://www.w3.org/2000/svg">
<path fill-rule="evenodd" clip-rule="evenodd" d="M17.5 4.37492C15.0837 4.37492 13.125 6.33367 13.125 8.74992C13.125 11.1662 15.0837 13.1249 17.5 13.1249C19.9162 13.1249 21.875 11.1662 21.875 8.74992C21.875 6.33367 19.9162 4.37492 17.5 4.37492ZM10.2083 8.74992C10.2083 4.72284 13.4729 1.45825 17.5 1.45825C21.527 1.45825 24.7916 4.72284 24.7916 8.74992C24.7916 12.777 21.527 16.0416 17.5 16.0416C13.4729 16.0416 10.2083 12.777 10.2083 8.74992ZM2.91663 32.0833C2.91663 24.0291 9.44583 17.4999 17.5 17.4999C25.5541 17.4999 32.0833 24.0291 32.0833 32.0833C32.0833 32.8887 31.4304 33.5416 30.625 33.5416C29.8195 33.5416 29.1666 32.8887 29.1666 32.0833C29.1666 25.64 23.9433 20.4166 17.5 20.4166C11.0567 20.4166 5.83329 25.64 5.83329 32.0833C5.83329 32.8887 5.18037 33.5416 4.37496 33.5416C3.56954 33.5416 2.91663 32.8887 2.91663 32.0833Z" fill="#252525" fill-opacity="0.85"/>
</svg>
